<svg height="472pt" viewBox="-32 0 472 472" width="472pt" xmlns="http://www.w3.org/2000/svg"><path d="m112 80h240v320h-240zm0 0" fill="#4398d1"/><path d="m112 352v48h240v-288zm0 0" fill="#3e8cc7"/><path d="m112 432c0 17.671875 14.328125 32 32 32h176c17.671875 0 32-14.328125 32-32v-32h-240zm0 0" fill="#d6d9db"/><path d="m320 32h-176c-17.671875 0-32 14.328125-32 32v16h240v-16c0-17.671875-14.328125-32-32-32zm0 0" fill="#d6d9db"/><path d="m224 424h16v16h-16zm0 0" fill="#a0a1a3"/><g fill="#5eb3d1"><path d="m144 304h64v64h-64zm0 0"/><path d="m144 208h64v64h-64zm0 0"/><path d="m232 296h96v16h-96zm0 0"/><path d="m232 328h56v16h-56zm0 0"/><path d="m232 360h96v16h-96zm0 0"/><path d="m232 200h40v16h-40zm0 0"/><path d="m232 232h96v16h-96zm0 0"/><path d="m232 264h96v16h-96zm0 0"/><path d="m288 200h40v16h-40zm0 0"/><path d="m232 104h40v16h-40zm0 0"/><path d="m304 136h24v16h-24zm0 0"/><path d="m232 168h96v16h-96zm0 0"/><path d="m288 104h40v16h-40zm0 0"/><path d="m232 136h56v16h-56zm0 0"/></g><path d="m388.207031 259.679688-36.207031-43.679688v256h56v-159.648438c0-19.375-7.035156-38.089843-19.792969-52.671874zm0 0" fill="#fec9a3"/><path d="m284 252c-11.097656-10.742188-28.757812-10.597656-39.679688.320312-10.917968 10.921876-11.0625 28.582032-.320312 39.679688l68 68-6.585938 11.527344c-15.339843 26.84375-12.726562 60.332031 6.585938 84.472656v16h56v-136zm0 0" fill="#fec9a3"/><path d="m208 0h-184c-13.253906 0-24 10.746094-24 24v160c0 13.253906 10.746094 24 24 24h72l72 40-16-40h56c13.253906 0 24-10.746094 24-24v-160c0-13.253906-10.746094-24-24-24zm0 0" fill="#e3584b"/><path d="m192 71.160156h16v16h-16zm0 0" fill="#c9433c"/><path d="m180.417969 39.996094 16-8 7.15625 14.3125-16 8zm0 0" fill="#c9433c"/><path d="m192 112h16v16h-16zm0 0" fill="#c9433c"/><path d="m86.367188 133.414062-30.367188 2.585938 8 40h32zm0 0" fill="#e0e3e6"/><path d="m176 144-89.632812-10.585938-10.472657-48.566406 76.105469-52.847656zm0 0" fill="#e0e3e6"/><path d="m51.613281 90.085938 24.28125-5.234376 10.46875 48.554688-24.285156 5.234375c-13.394531 2.894531-26.605469-5.613281-29.515625-19.003906-2.890625-13.410157 5.636719-26.628907 19.046875-29.519531zm0 0" fill="#4398d1"/></svg>