<?xml version="1.0" encoding="iso-8859-1"?>
<!-- Generator: Adobe Illustrator 21.0.0, SVG Export Plug-In . SVG Version: 6.00 Build 0)  -->
<svg xmlns="http://www.w3.org/2000/svg" xmlns:xlink="http://www.w3.org/1999/xlink" version="1.1" id="Capa_1" x="0px" y="0px" viewBox="0 0 512 512" style="enable-background:new 0 0 512 512;" xml:space="preserve" width="512" height="512">
<g>
	<path style="fill:#B5FCFF;" d="M371.38,512H140.62c-17.069,0-30.905-13.837-30.905-30.905V30.905   C109.714,13.837,123.551,0,140.62,0H371.38c17.069,0,30.905,13.837,30.905,30.905v450.189C402.286,498.163,388.449,512,371.38,512z   "/>
	<path style="fill:#71F6FC;" d="M371.38,0h-30.905c17.069,0,30.905,13.837,30.905,30.905v450.189   c0,17.069-13.837,30.905-30.905,30.905h30.905c17.069,0,30.905-13.837,30.905-30.905V30.905C402.286,13.837,388.449,0,371.38,0z"/>
	<rect x="109.714" y="433.706" style="fill:#3BE3EB;" width="292.571" height="30.905"/>
	<rect x="371.38" y="433.706" style="fill:#2BC3D4;" width="30.905" height="30.905"/>
	<path style="fill:#50536E;" d="M371.38,512H140.62c-17.069,0-30.905-13.837-30.905-30.905v-16.483h292.571v16.483   C402.286,498.163,388.449,512,371.38,512z"/>
	<path style="fill:#484B63;" d="M371.38,464.612v16.483c0,17.069-13.837,30.905-30.905,30.905h30.905   c17.069,0,30.905-13.837,30.905-30.905v-16.483H371.38z"/>
	<path style="fill:#50536E;" d="M140.62,0H371.38c17.069,0,30.905,13.837,30.905,30.905v16.483H109.714V30.905   C109.714,13.837,123.551,0,140.62,0z"/>
	<path style="fill:#484B63;" d="M371.38,0h-30.905c17.069,0,30.905,13.837,30.905,30.905v16.483h30.905V30.905   C402.286,13.837,388.449,0,371.38,0z"/>
	<g>
		<path style="fill:#B5FCFF;" d="M276.604,495.806h-41.207c-4.142,0-7.5-3.358-7.5-7.5s3.358-7.5,7.5-7.5h41.207    c4.142,0,7.5,3.358,7.5,7.5S280.746,495.806,276.604,495.806z"/>
	</g>
	<path style="fill:#FFD659;" d="M162.188,75.183H39.728C17.787,75.183,0,92.97,0,114.911v95.675   c0,21.941,17.787,39.728,39.728,39.728h35.033c2.075,0,3.789,1.591,3.983,3.657c4.429,47.149,37.702,44.832,51.132,41.911   c1.101-0.239,1.07-1.815-0.039-2.014c-21.824-3.907-17.813-31.065-15.754-40.406c0.405-1.838,2.026-3.148,3.909-3.148h44.196   c21.941,0,39.728-17.787,39.728-39.728v-95.676C201.915,92.97,184.129,75.183,162.188,75.183z"/>
	<g>
		<path style="fill:#FFBD54;" d="M162.188,75.183h-30.905c21.941,0,39.728,17.787,39.728,39.728v95.676    c0,21.941-17.787,39.728-39.728,39.728h30.905c21.941,0,39.728-17.787,39.728-39.728V114.91    C201.915,92.97,184.129,75.183,162.188,75.183z"/>
	</g>
	<path style="fill:#FF2C5C;" d="M144.225,149.459c0,14.711-11.725,32.038-40.678,47.29c-1.292,0.681-2.858,0.681-4.15,0   c-28.952-15.253-40.678-32.58-40.678-47.29c0-13.082,8.722-24.312,21.376-24.312c9.41,0,15.739,4.81,18.936,8.052   c1.326,1.344,3.556,1.344,4.881,0c3.197-3.242,9.525-8.052,18.936-8.052C135.504,125.147,144.225,136.376,144.225,149.459z"/>
	<path style="fill:#FFD659;" d="M349.812,200.865h122.46c21.941,0,39.728,17.787,39.728,39.728v95.675   c0,21.941-17.787,39.728-39.728,39.728h-35.033c-2.075,0-3.789,1.591-3.983,3.657c-4.429,47.149-37.702,44.832-51.132,41.911   c-1.101-0.239-1.07-1.815,0.039-2.014c21.824-3.907,17.813-31.065,15.753-40.406c-0.405-1.838-2.026-3.148-3.909-3.148h-44.196   c-21.941,0-39.728-17.787-39.728-39.728v-95.676C310.085,218.652,327.871,200.865,349.812,200.865z"/>
	<g>
		<path style="fill:#FFBD54;" d="M472.272,200.865h-30.905c21.941,0,39.728,17.787,39.728,39.728v95.676    c0,21.941-17.787,39.728-39.728,39.728h30.905c21.941,0,39.728-17.787,39.728-39.728v-95.676    C512,218.652,494.213,200.865,472.272,200.865z"/>
	</g>
	<circle style="fill:#4FC6F5;" cx="411.042" cy="257.088" r="21.634"/>
	<path style="fill:#4FC6F5;" d="M435.926,321.99h-49.767c-6.171,0-11.173-5.002-11.173-11.173v-0.682   c0-17.348,14.064-31.412,31.412-31.412h9.288c17.348,0,31.412,14.064,31.412,31.412v0.682   C447.099,316.987,442.096,321.99,435.926,321.99z"/>
	<g>
		<g>
			<path style="fill:#50536E;" d="M350.888,102.944H241.689c-4.142,0-7.5-3.358-7.5-7.5s3.358-7.5,7.5-7.5h109.199     c4.142,0,7.5,3.358,7.5,7.5S355.03,102.944,350.888,102.944z"/>
		</g>
		<g>
			<path style="fill:#50536E;" d="M350.888,133.85H241.689c-4.142,0-7.5-3.358-7.5-7.5c0-4.142,3.358-7.5,7.5-7.5h109.199     c4.142,0,7.5,3.358,7.5,7.5C358.388,130.492,355.03,133.85,350.888,133.85z"/>
		</g>
		<g>
			<path style="fill:#50536E;" d="M350.888,164.755H241.689c-4.142,0-7.5-3.358-7.5-7.5s3.358-7.5,7.5-7.5h109.199     c4.142,0,7.5,3.358,7.5,7.5S355.03,164.755,350.888,164.755z"/>
		</g>
	</g>
	<g>
		<g>
			<path style="fill:#FF2C5C;" d="M268.408,344.418H156.209c-3.314,0-6-2.686-6-6v-18.905c0-3.314,2.686-6,6-6h112.199     c3.314,0,6,2.686,6,6v18.905C274.408,341.732,271.721,344.418,268.408,344.418z"/>
		</g>
		<g>
			<path style="fill:#FF2C5C;" d="M266.908,382.824H157.709c-4.142,0-7.5-3.358-7.5-7.5s3.358-7.5,7.5-7.5h109.199     c4.142,0,7.5,3.358,7.5,7.5S271.05,382.824,266.908,382.824z"/>
		</g>
	</g>
</g>















</svg>
