<?xml version="1.0" encoding="iso-8859-1"?>
<!-- Generator: Adobe Illustrator 19.0.0, SVG Export Plug-In . SVG Version: 6.00 Build 0)  -->
<svg version="1.1" id="Capa_1" xmlns="http://www.w3.org/2000/svg" xmlns:xlink="http://www.w3.org/1999/xlink" x="0px" y="0px"
	 viewBox="0 0 511.667 511.667" style="enable-background:new 0 0 511.667 511.667;" xml:space="preserve">
<path style="fill:#F26F5A;" d="M490.667,418.557c7.467,4.267,9.6,17.067,14.933,23.467c0,0,6.4,12.8,4.267,22.4
	c-2.133,7.467-10.667,7.467-20.267,5.333l-14.933-2.133l-30.933,3.2l-12.8-5.333c0,0,0-9.6,8.533-8.533c8.533,0,16-1.067,22.4-5.333
	c6.4-4.267,13.867-24.533,13.867-24.533L490.667,418.557z"/>
<path style="fill:#425A6B;" d="M432,461.224c0,0,13.867,8.533,34.133,4.267c21.333-5.333,20.267,1.067,25.6,1.067
	s14.933,0,18.133-3.2c0,0,3.2,5.333,1.067,10.667c0,0-12.8,3.2-24.533,2.133c0,0-5.333-7.467-16-2.133c0,0-26.667,6.4-39.467-4.267
	C430.933,468.69,428.8,466.557,432,461.224z"/>
<path style="fill:#F26F5A;" d="M321.067,480.424l-6.4-6.4c0,0,1.067-4.267,8.533-4.267s14.933-2.133,17.067-4.267
	c2.133-1.067,21.333-21.333,24.533-30.933c3.2-9.6,3.2-9.6,3.2-9.6l24.533,13.867c0,0-2.133,16,1.067,19.2
	c3.2,3.2,4.267,8.533,3.2,16c0,7.467,0,7.467,0,7.467h-19.2l-16,2.133l-16,4.267L321.067,480.424z"/>
<path id="SVGCleanerId_0" style="fill:#425A6B;" d="M464,216.957c0,0,7.467,17.067-10.667,38.4c0,0,6.4,35.2,5.333,45.867
	c-1.067,9.6,3.2,23.467,8.533,32c5.333,9.6,30.933,69.333,35.2,100.267c0,0-13.867,9.6-22.4,7.467
	c-8.533-2.133-8.533-7.467-8.533-7.467s-4.267-23.467-13.867-41.6c-9.6-18.133-16-35.2-17.067-37.333
	c-1.067-2.133-22.4-23.467-26.667-43.733c0,0-10.667,19.2-13.867,25.6c0,0,5.333,41.6,2.133,57.6s-9.6,49.067-9.6,55.467
	c0,0-22.4,5.333-28.8-13.867c0,0,3.2-19.2,3.2-44.8c0-24.533-1.067-41.6-3.2-45.867c-2.133-4.267-7.467-19.2-2.133-33.067
	c5.333-13.867,28.8-73.6,28.8-73.6S445.867,204.157,464,216.957z"/>
<g>
	<path id="SVGCleanerId_0_1_" style="fill:#425A6B;" d="M464,216.957c0,0,7.467,17.067-10.667,38.4c0,0,6.4,35.2,5.333,45.867
		c-1.067,9.6,3.2,23.467,8.533,32c5.333,9.6,30.933,69.333,35.2,100.267c0,0-13.867,9.6-22.4,7.467
		c-8.533-2.133-8.533-7.467-8.533-7.467s-4.267-23.467-13.867-41.6c-9.6-18.133-16-35.2-17.067-37.333
		c-1.067-2.133-22.4-23.467-26.667-43.733c0,0-10.667,19.2-13.867,25.6c0,0,5.333,41.6,2.133,57.6s-9.6,49.067-9.6,55.467
		c0,0-22.4,5.333-28.8-13.867c0,0,3.2-19.2,3.2-44.8c0-24.533-1.067-41.6-3.2-45.867c-2.133-4.267-7.467-19.2-2.133-33.067
		c5.333-13.867,28.8-73.6,28.8-73.6S445.867,204.157,464,216.957z"/>
</g>
<path style="fill:#344A5E;" d="M453.333,255.357L453.333,255.357L453.333,255.357l-39.467,55.467l0,0l0,0
	c1.067,4.267,2.133,7.467,4.267,11.733c3.2-6.4,7.467-11.733,11.733-16c11.733-9.6-5.333,13.867,2.133,7.467
	c3.2-2.133,14.933-14.933,26.667-28.8C455.467,272.424,453.333,255.357,453.333,255.357z"/>
<path style="fill:#425A6B;" d="M314.667,474.024c0,0,3.2,2.133,7.467,3.2c5.333,2.133,17.067,5.333,27.733,3.2
	c10.667-1.067,21.333-4.267,28.8-4.267c6.4,1.067,16-1.067,17.067-3.2c0,0,2.133,5.333,2.133,9.6c0,0-7.467,6.4-22.4,4.267
	c0,0-5.333-6.4-13.867-2.133l-3.2,2.133v2.133c0,0-21.333,4.267-37.333-4.267l-3.2-2.133c-2.133-1.067-4.267-4.267-3.2-7.467
	L314.667,474.024z"/>
<g>
	<path style="fill:#56BFEB;" d="M131.2,443.09l-7.467-4.267L211.2,289.49c4.267-7.467,12.8-13.867,21.333-16l66.133-16l2.133,8.533
		l-66.133,14.933c-6.4,2.133-12.8,6.4-16,11.733L131.2,443.09z"/>
	
		<rect x="158.435" y="363.942" transform="matrix(-0.0589 -0.9983 0.9983 -0.0589 -180.0695 565.5933)" style="fill:#56BFEB;" width="36.268" height="7.467"/>
</g>
<path style="fill:#425A6B;" d="M305.067,254.29l-40.533,10.667c0,0,4.267,4.267,2.133,8.533l39.467-9.6c0,0,2.133,2.133,2.133-1.067
	c0-2.133-1.067-9.6-4.267-10.667C304,252.157,305.067,254.29,305.067,254.29z"/>
<path style="fill:#F5B54C;" d="M295.467,262.824c0,0,1.067-6.4,7.467-5.333l-1.067,7.467c0,0,1.067,2.133-1.067,4.267
	c-2.133,3.2-5.333,4.267-5.333,4.267C289.067,273.49,290.133,269.224,295.467,262.824z"/>
<g>
	<path style="fill:#FFD15C;" d="M274.133,264.957c0,0,4.267,6.4,10.667-1.067c0,0,3.2-3.2,5.333-3.2l16-5.333
		c0,0,2.133-2.133,1.067-6.4c0,0,3.2-6.4,5.333-8.533c2.133-3.2,2.133-3.2,2.133-3.2l-16-7.467l-6.4,13.867
		c0,0-2.133,2.133-4.267,4.267c-2.133,2.133-6.4,8.533-7.467,11.733L274.133,264.957z"/>
	<path style="fill:#FFD15C;" d="M278.4,270.29c0,0,0,4.267,3.2,5.333s12.8,0,12.8,0s2.133-4.267-3.2-3.2l3.2-1.067
		c1.067,0,2.133-1.067,2.133-2.133l1.067-5.333c0,0-5.333-2.133-7.467,2.133v1.067L278.4,270.29z"/>
</g>
<path style="fill:#F05640;" d="M355.2,182.824c0,0-8.533,18.133-11.733,24.533c-3.2,5.333-30.933,36.267-30.933,36.267l-3.2,3.2
	l-17.067-7.467l10.667-21.333c0,0,5.333-16,12.8-23.467S329.6,170.024,329.6,161.49s-3.2-37.333,0-49.067
	C331.733,101.757,355.2,182.824,355.2,182.824z"/>
<path style="fill:#FFD15C;" d="M329.6,87.89l1.067,4.267v13.867l4.267,11.733c0,0,7.467,2.133,8.533,2.133
	c1.067,0,5.333-16,5.333-16l-6.4-10.667L329.6,87.89z"/>
<path style="fill:#F26F5A;" d="M457.6,198.824c0,0,9.6,17.067,10.667,22.4c0,0-3.2,3.2-9.6,3.2c-6.4,0-19.2-4.267-19.2-4.267
	L457.6,198.824z"/>
<circle style="fill:#344A5E;" cx="122.667" cy="448.424" r="39.467"/>
<circle style="fill:#F3F3F3;" cx="122.667" cy="448.424" r="19.2"/>
<rect x="96.019" y="444.362" transform="matrix(-0.8264 -0.563 0.563 -0.8264 -33.9845 888.9141)" style="fill:#56BFEB;" width="47.998" height="10.666"/>
<circle style="fill:#425A6B;" cx="122.667" cy="448.424" r="6.4"/>
<path style="fill:#56BFEB;" d="M145.067,451.624l-7.467-4.267l87.467-149.333c4.267-7.467,12.8-13.867,21.333-16l66.133-16
	l2.133,8.533l-66.133,16c-6.4,2.133-12.8,6.4-16,11.733L145.067,451.624z"/>
<ellipse style="fill:#F05640;" cx="374.4" cy="128.424" rx="32" ry="44.8"/>
<path style="fill:#FFD15C;" d="M290.133,50.557c0,0,1.067,8.533,2.133,12.8c0,0,2.133,0,2.133,2.133s0,11.733,1.067,12.8
	c2.133,1.067,4.267,0,4.267,0s1.067,4.267,4.267,4.267c0,0-1.067,1.067,1.067,3.2c0,0,1.067,0,2.133,1.067s0,0,0,0l1.067,2.133
	l3.2,4.267l10.667-3.2c0,0,9.6,1.067,13.867,8.533l17.067-34.133c0,0-4.267-6.4-4.267-8.533c0-2.133-2.133-4.267-2.133-4.267
	C347.733,30.29,290.133,29.224,290.133,50.557"/>
<polygon style="fill:#F05640;" points="329.6,106.024 333.867,99.624 342.4,97.49 337.067,123.09 "/>
<path style="fill:#425A6B;" d="M342.4,30.29c0,0,6.4,20.267,6.4,25.6c0,0-7.467-1.067-12.8-8.533
	c-6.4-7.467-13.867,1.067-12.8,7.467c1.067,6.4,9.6,11.733,9.6,11.733s3.2,12.8,2.133,17.067S329.6,91.09,329.6,91.09
	s-3.2-2.133-4.267-2.133c-2.133,1.067-10.667,8.533-14.933,1.067c0,0-1.067-3.2-2.133-4.267c0,0,1.067-1.067,2.133,0
	c1.067,1.067,1.067,3.2,1.067,4.267c0,1.067,3.2-1.067,3.2-4.267c-1.067-3.2-2.133-5.333-5.333-5.333
	c-2.133,0-7.467,4.267-8.533-1.067c0,0,4.267-3.2,10.667-1.067c0,0,3.2,3.2,3.2,1.067c1.067-2.133,1.067-7.467,1.067-11.733
	c1.067-4.267,3.2-10.667,0-14.933s-10.667-7.467-14.933-7.467s-4.267-1.067-4.267-1.067L307.2,27.09L342.4,30.29z"/>
<path style="fill:#F05640;" d="M284.8,56.957v-3.2c0,0-5.333-17.067-2.133-30.933c3.2-13.867,24.533-20.267,34.133-19.2
	c9.6,2.133,25.6,12.8,28.8,24.533l-1.067,2.133c0,0-10.667,4.267-16,5.333c-4.267,1.067-29.867,13.867-29.867,13.867
	S286.933,61.224,284.8,56.957z"/>
<path style="fill:#F26F5A;" d="M284.8,53.757c0,0-3.2,6.4-6.4,9.6c-3.2,2.133-6.4,5.333-1.067,3.2s10.667-8.533,12.8-9.6
	c2.133-1.067,24.533-16,33.067-18.133c8.533-3.2,23.467-6.4,24.533-9.6c1.067-2.133-3.2-1.067-3.2-1.067
	c-1.067,0-7.467,5.333-12.8,6.4s-20.267,8.533-23.467,9.6C305.067,46.29,285.867,56.957,284.8,53.757z"/>
<path style="fill:#344A5E;" d="M334.933,84.69c-1.067,4.267-5.333,7.467-5.333,7.467s-3.2-2.133-4.267-2.133
	c0,0,6.4-7.467,7.467-22.4C332.8,67.624,336,80.424,334.933,84.69z"/>
<path style="fill:#67C5B8;" d="M397.867,149.757c-2.133,9.6-29.867,19.2-35.2,13.867c-5.333-4.267-8.533-13.867-9.6-22.4
	c-1.067-8.533-2.133-26.667-2.133-26.667c0-5.333,4.267-17.067,9.6-20.267c4.267-3.2,17.067-4.267,28.8,0
	c11.733,4.267,12.8,20.267,12.8,27.733C402.133,129.49,400,139.09,397.867,149.757z M465.067,203.09
	c-6.4-9.6-56.533-102.4-70.4-113.067c-12.8-10.667-43.733-27.733-43.733-27.733S352,82.557,345.6,87.89
	c-6.4,5.333-10.667,23.467-10.667,23.467l0,0l0,0l0,0l0,0l0,0l0,0c0-1.067,0-6.4-1.067-9.6c-1.067-4.267-4.267-9.6-4.267-9.6
	c-5.333,14.933-4.267,32-1.067,40.533c3.2,8.533,4.267,23.467,9.6,35.2c5.333,11.733,8.533,27.733,14.933,46.933
	c5.333,19.2,25.6,37.333,25.6,37.333c5.333-6.4,45.867-17.067,50.133-19.2c4.267-2.133,25.6-17.067,30.933-21.333
	C467.2,208.424,465.067,203.09,465.067,203.09z"/>
<path style="fill:#48B9A5;" d="M344.533,106.024l-10.667-6.4c0,0,6.4-32,18.133-37.333l4.267,2.133L344.533,106.024z"/>
<path style="fill:#425A6B;" d="M338.133,271.357l-48,9.6c1.067-3.2,0-6.4-2.133-9.6l45.867-11.733L338.133,271.357z"/>
<circle style="fill:#425A6B;" cx="135.467" cy="468.69" r="39.467"/>
<circle style="fill:#F3F3F3;" cx="135.467" cy="468.69" r="19.2"/>
<circle style="fill:#425A6B;" cx="135.467" cy="468.69" r="6.4"/>
<polygon style="fill:#F5B54C;" points="203.733,315.09 165.333,284.157 135.467,319.357 173.867,352.424 "/>
<polygon style="fill:#FFD15C;" points="165.333,284.157 153.6,280.957 126.933,314.024 135.467,319.357 "/>
<polygon style="fill:#F5B54C;" points="176,348.157 120.533,304.424 74.667,358.824 129.067,405.757 "/>
<polygon style="fill:#FFD15C;" points="120.533,304.424 104.533,301.224 61.867,350.29 74.667,358.824 "/>
<polygon style="fill:#F5B54C;" points="137.6,389.757 71.467,337.49 14.933,403.624 81.067,460.157 "/>
<polygon style="fill:#FFD15C;" points="71.467,337.49 51.2,332.157 0,392.957 14.933,403.624 "/>
<path style="fill:#8AD6F7;" d="M80,464.424l221.867-257.067c1.067-1.067,1.067-4.267-1.067-5.333l0,0
	c-1.067-1.067-3.2-1.067-4.267,1.067l-220.8,257.067L80,464.424z"/>
<path style="fill:#FFD15C;" d="M332.8,237.224l-1.067,2.133c-2.133,3.2-4.267,6.4-6.4,9.6c-1.067,1.067-2.133,3.2-4.267,4.267
	c-5.333,3.2-8.533,5.333-9.6,7.467c-1.067,2.133-3.2,11.733-4.267,13.867c-1.067,2.133,1.067,6.4,1.067,6.4
	c0,1.067,4.267,2.133,7.467,1.067c0,0,7.467,1.067,7.467-2.133c0,0,6.4,0,6.4-1.067c0,0,6.4,0,6.4-2.133c0-1.067-1.067-4.267,0-6.4
	c1.067-2.133,5.333-5.333,5.333-10.667c0-4.267,6.4-13.867,7.467-14.933C352,242.557,332.8,237.224,332.8,237.224z"/>
<path style="fill:#F26F5A;" d="M357.333,134.824c0,0-12.8-24.533,2.133-37.333c5.333-4.267,10.667-5.333,17.067-4.267
	c12.8,2.133,22.4,13.867,23.467,26.667c0,3.2,0,6.4,0,9.6c-1.067,8.533-1.067,48-1.067,51.2s-3.2,18.133-10.667,24.533
	c0,0-18.133,25.6-24.533,28.8l-13.867,17.067c0,0-16-11.733-19.2-12.8l11.733-17.067c0,0,7.467-17.067,11.733-21.333
	s10.667-17.067,10.667-20.267s-4.267-29.867-5.333-34.133C358.4,140.157,357.333,134.824,357.333,134.824z"/>
<path style="fill:#8AD6F7;" d="M80,464.424L80,464.424c-1.067,1.067-3.2,2.133-5.333,0l-43.733-40.533l3.2-4.267l48,41.6L80,464.424
	z"/>
<g>
</g>
<g>
</g>
<g>
</g>
<g>
</g>
<g>
</g>
<g>
</g>
<g>
</g>
<g>
</g>
<g>
</g>
<g>
</g>
<g>
</g>
<g>
</g>
<g>
</g>
<g>
</g>
<g>
</g>
</svg>
